<?xml version="1.0" encoding="UTF-8" standalone="no"?>
<!-- Created with Inkscape (http://www.inkscape.org/) -->
<svg
   xmlns:dc="http://purl.org/dc/elements/1.1/"
   xmlns:cc="http://creativecommons.org/ns#"
   xmlns:rdf="http://www.w3.org/1999/02/22-rdf-syntax-ns#"
   xmlns:svg="http://www.w3.org/2000/svg"
   xmlns="http://www.w3.org/2000/svg"
   xmlns:sodipodi="http://sodipodi.sourceforge.net/DTD/sodipodi-0.dtd"
   xmlns:inkscape="http://www.inkscape.org/namespaces/inkscape"
   version="1.0"
   width="50"
   height="70"
   viewBox="0 0 50 70"
   id="svg2453"
   xml:space="preserve"
   sodipodi:version="0.32"
   inkscape:version="0.46"
   sodipodi:docname="CardBack_RedCheck.svg"
   inkscape:output_extension="org.inkscape.output.svg.inkscape"><metadata
   id="metadata23009"><rdf:RDF><cc:Work
       rdf:about=""><dc:format>image/svg+xml</dc:format><dc:type
         rdf:resource="http://purl.org/dc/dcmitype/StillImage" /></cc:Work></rdf:RDF></metadata><sodipodi:namedview
   inkscape:window-height="977"
   inkscape:window-width="1280"
   inkscape:pageshadow="2"
   inkscape:pageopacity="0.0"
   guidetolerance="10.0"
   gridtolerance="10.0"
   objecttolerance="10.0"
   borderopacity="1.0"
   bordercolor="#666666"
   pagecolor="#ffffff"
   id="base"
   showgrid="false"
   inkscape:zoom="6.6"
   inkscape:cx="6.0606061"
   inkscape:cy="41.341646"
   inkscape:window-x="-4"
   inkscape:window-y="-4"
   inkscape:current-layer="svg2453" /><defs
   id="defs2479"><inkscape:perspective
   sodipodi:type="inkscape:persp3d"
   inkscape:vp_x="0 : 35 : 1"
   inkscape:vp_y="0 : 1000 : 0"
   inkscape:vp_z="50 : 35 : 1"
   inkscape:persp3d-origin="25 : 23.333333 : 1"
   id="perspective23011" /><linearGradient
   id="linearGradient3339"><stop
     id="stop3341"
     style="stop-color:#ff0000;stop-opacity:1"
     offset="0" /><stop
     id="stop3343"
     style="stop-color:#ff0000;stop-opacity:0.81262732"
     offset="1" /></linearGradient>
	
	
	
	
	
	

		
		
	</defs>






<g
   id="layer2"
   style="display:inline"><path
     d="M 44.328,-1.2434498e-14 C 47.461,-1.2434498e-14 50,2.54 50,5.672 L 50,64.327999 C 50,67.461 47.461,70 44.328,70 L 5.6720001,70 C 2.5400001,70 -1.7763568e-15,67.461 -1.7763568e-15,64.327999 L -1.7763568e-15,5.672 C -1.7763568e-15,2.54 2.5400001,-1.2434498e-14 5.6720001,-1.2434498e-14 L 44.328,-1.2434498e-14"
     id="use3317"
     style="fill:#000000;fill-opacity:1;fill-rule:nonzero;stroke:none;stroke-width:0.89999998;stroke-linecap:butt;stroke-linejoin:miter;stroke-miterlimit:1;stroke-dasharray:none;stroke-opacity:1" /></g><g
   id="layer1"
   style="display:inline;fill:#d4aa00"><path
     d="M 44.005867,0.41666663 C 47.08665,0.41666663 49.583333,2.9264284 49.583333,6.0211428 L 49.583333,63.978857 C 49.583333,67.074558 47.08665,69.583333 44.005867,69.583333 L 5.9941333,69.583333 C 2.9143333,69.583333 0.41666667,67.074558 0.41666667,63.978857 L 0.41666667,6.0211428 C 0.41666667,2.9264284 2.9143333,0.41666663 5.9941333,0.41666663 L 44.005867,0.41666663"
     id="path3326"
     style="fill:#d4aa00;fill-opacity:1;fill-rule:nonzero;stroke:none;stroke-width:0.89999998000000003;stroke-linecap:butt;stroke-linejoin:miter;stroke-miterlimit:1;stroke-dasharray:none;stroke-opacity:1" /></g><g
   id="layer3"><g
     transform="translate(-7.2168816e-3,-2.9891741e-2)"
     id="g3838"
     style="opacity:0.19230772;fill:#ffffff;display:inline"><path
       d="M 44.005867,0.41666663 C 47.08665,0.41666663 49.583333,2.9264284 49.583333,6.0211428 L 49.595217,29.470166 C 24.941974,15.23661 0.41666667,6.0211428 0.41666667,6.0211428 C 0.41666667,2.9264284 2.9143333,0.41666663 5.9941333,0.41666663 L 44.005867,0.41666663"
       id="path3840"
       style="fill:#ffffff;fill-opacity:1;fill-rule:nonzero;stroke:none;stroke-width:0.89999998;stroke-linecap:butt;stroke-linejoin:miter;stroke-miterlimit:1;stroke-dasharray:none;stroke-opacity:1" /></g></g></svg>